<svg width="50" height="46" viewBox="0 0 50 46" fill="none" xmlns="http://www.w3.org/2000/svg">
<rect y="5" width="50" height="40" rx="10" fill="black"/>
<path d="M25.7598 26.6309H21.5586V36H16.2852V10.4062H25.7949C28.8184 10.4062 31.1504 11.0801 32.791 12.4277C34.4316 13.7754 35.252 15.6797 35.252 18.1406C35.252 19.8867 34.8711 21.3457 34.1094 22.5176C33.3594 23.6777 32.2168 24.6035 30.6816 25.2949L36.2188 35.7539V36H30.5586L25.7598 26.6309ZM21.5586 22.3594H25.8125C27.1367 22.3594 28.1621 22.0254 28.8887 21.3574C29.6152 20.6777 29.9785 19.7461 29.9785 18.5625C29.9785 17.3555 29.6328 16.4062 28.9414 15.7148C28.2617 15.0234 27.2129 14.6777 25.7949 14.6777H21.5586V22.3594Z" fill="white"/>
<path d="M25.7598 26.6309L34.6602 22.0721L31.8732 16.6309H25.7598V26.6309ZM21.5586 26.6309V16.6309H11.5586V26.6309H21.5586ZM21.5586 36V46H31.5586V36H21.5586ZM16.2852 36H6.28516V46H16.2852V36ZM16.2852 10.4062V0.40625H6.28516V10.4062H16.2852ZM34.1094 22.5176L25.7249 17.0677L25.7182 17.0781L25.7114 17.0886L34.1094 22.5176ZM30.6816 25.2949L26.5751 16.177L16.8568 20.554L21.8438 29.9738L30.6816 25.2949ZM36.2188 35.7539H46.2188V33.2701L45.0566 31.075L36.2188 35.7539ZM36.2188 36V46H46.2188V36H36.2188ZM30.5586 36L21.6582 40.5588L24.4451 46H30.5586V36ZM21.5586 22.3594H11.5586V32.3594H21.5586V22.3594ZM28.8887 21.3574L35.6567 28.7191L35.6886 28.6898L35.7202 28.6601L28.8887 21.3574ZM28.9414 15.7148L21.8102 22.7252L21.8401 22.7557L21.8703 22.7859L28.9414 15.7148ZM21.5586 14.6777V4.67773H11.5586V14.6777H21.5586ZM25.7598 16.6309H21.5586V36.6309H25.7598V16.6309ZM11.5586 26.6309V36H31.5586V26.6309H11.5586ZM21.5586 26H16.2852V46H21.5586V26ZM26.2852 36V10.4062H6.28516V36H26.2852ZM16.2852 20.4062H25.7949V0.40625H16.2852V20.4062ZM25.7949 20.4062C26.5873 20.4062 26.9612 20.4971 27.0356 20.5186C27.0819 20.532 26.8137 20.459 26.4436 20.155L39.1384 4.70047C35.0845 1.3705 30.1708 0.40625 25.7949 0.40625V20.4062ZM26.4436 20.155C26.0617 19.8413 25.6892 19.3721 25.4526 18.8229C25.2337 18.3147 25.252 18.0206 25.252 18.1406H45.252C45.252 13.2194 43.4735 8.26145 39.1384 4.70047L26.4436 20.155ZM25.252 18.1406C25.252 18.2923 25.235 18.2316 25.2905 18.0186C25.3496 17.7923 25.477 17.4491 25.7249 17.0677L42.4938 27.9675C44.545 24.8118 45.252 21.3394 45.252 18.1406H25.252ZM25.7114 17.0886C25.9453 16.7268 26.1989 16.4709 26.3945 16.3124C26.5802 16.1619 26.6691 16.1347 26.5751 16.177L34.7882 34.4128C37.6925 33.1048 40.5033 31.0466 42.5074 27.9466L25.7114 17.0886ZM21.8438 29.9738L27.3809 40.4328L45.0566 31.075L39.5195 20.616L21.8438 29.9738ZM26.2188 35.7539V36H46.2188V35.7539H26.2188ZM36.2188 26H30.5586V46H36.2188V26ZM39.459 31.4412L34.6602 22.0721L16.8593 31.1896L21.6582 40.5588L39.459 31.4412ZM21.5586 32.3594H25.8125V12.3594H21.5586V32.3594ZM25.8125 32.3594C28.7716 32.3594 32.5299 31.5937 35.6567 28.7191L22.1207 13.9957C23.7944 12.457 25.5018 12.3594 25.8125 12.3594V32.3594ZM35.7202 28.6601C38.8494 25.7329 39.9785 21.9445 39.9785 18.5625H19.9785C19.9785 18.135 20.0447 17.3996 20.3893 16.516C20.7483 15.5954 21.3222 14.7422 22.0571 14.0547L35.7202 28.6601ZM39.9785 18.5625C39.9785 15.3628 38.9991 11.6304 36.0125 8.64378L21.8703 22.7859C21.1494 22.0649 20.6326 21.2175 20.323 20.3674C20.0271 19.5549 19.9785 18.9047 19.9785 18.5625H39.9785ZM36.0727 8.70447C32.7919 5.36719 28.6534 4.67773 25.7949 4.67773V24.6777C25.7724 24.6777 23.7315 24.6797 21.8102 22.7252L36.0727 8.70447ZM25.7949 4.67773H21.5586V24.6777H25.7949V4.67773ZM11.5586 14.6777V22.3594H31.5586V14.6777H11.5586Z" fill="black"/>
</svg>
